 <svg  version="1.0" xmlns="http://www.w3.org/2000/svg"  width="300.000000pt" height="172.000000pt" viewBox="0 0 300.000000 172.000000"  preserveAspectRatio="xMidYMid meet">  <g transform="translate(0.000000,172.000000) scale(0.100000,-0.100000)" fill="#f5ac0f" stroke="none"> <path d="M353 1495 c-139 -43 -251 -174 -269 -312 -12 -102 30 -211 132 -338 171 -212 192 -265 155 -385 -23 -75 -104 -182 -168 -221 -34 -22 -36 -24 -15 -27 36 -5 145 62 203 125 72 79 103 149 107 243 5 94 -16 145 -123 306 -142 213 -168 314 -114 441 21 49 78 114 125 144 59 36 43 48 -33 24z m-87 -104 c-42 -66 -59 -135 -53 -205 8 -88 35 -149 133 -302 106 -167 124 -207 125 -281 0 -85 -5 -107 -40 -165 -38 -63 -50 -78 -74 -97 -11 -9 -6 9 18 55 63 125 47 223 -62 365 -35 46 -82 109 -105 139 -74 96 -92 143 -92 240 -1 108 24 168 99 240 64 60 84 64 51 11z"/> <path d="M349 1373 c-38 -100 -37 -228 3 -314 14 -30 50 -90 80 -134 73 -106 90 -140 103 -205 l12 -55 16 32 c23 43 31 130 18 179 -6 22 -51 103 -100 178 -98 152 -118 204 -107 292 7 59 -7 74 -25 27z m96 -332 c62 -93 111 -188 103 -196 -9 -9 -29 16 -91 111 -66 100 -105 184 -86 184 5 0 39 -45 74 -99z"/> <path d="M1025 1260 c-85 -12 -158 -60 -193 -125 -21 -40 -21 -150 0 -190 34 -64 78 -90 226 -133 119 -35 147 -51 169 -97 32 -67 -22 -142 -110 -152 -25 -3 -57 -3 -71 1 -37 9 -84 53 -91 86 -7 30 -7 30 -76 30 -65 0 -69 -1 -69 -22 0 -13 9 -41 19 -63 86 -186 423 -192 511 -9 26 53 31 145 10 185 -36 71 -85 99 -258 153 -102 32 -128 48 -142 91 -9 26 -8 41 4 68 21 50 58 71 123 71 63 -1 100 -23 123 -72 15 -31 16 -32 88 -32 l72 0 -6 28 c-32 133 -164 206 -329 182z m135 -41 c39 -8 63 -22 96 -53 82 -79 38 -109 -47 -32 -26 24 -62 46 -80 50 -123 24 -219 -39 -219 -144 0 -38 5 -49 43 -84 35 -34 61 -47 147 -74 140 -43 180 -66 207 -122 40 -78 15 -166 -65 -227 -75 -57 -229 -56 -315 3 -34 23 -67 69 -67 94 0 16 48 12 62 -6 67 -85 122 -112 201 -100 119 18 185 137 125 226 -28 42 -85 71 -210 109 -53 17 -109 38 -123 47 -36 23 -56 67 -59 126 -8 140 129 225 304 187z"/> <path d="M1819 1259 c-162 -23 -295 -145 -329 -300 -19 -85 -9 -202 23 -272 33 -74 112 -157 180 -190 189 -92 423 -34 529 132 15 25 28 49 28 53 0 4 -35 8 -78 8 -74 0 -79 -1 -90 -25 -17 -37 -87 -83 -145 -95 -126 -26 -242 32 -300 149 -18 38 -22 62 -21 141 1 106 14 146 66 205 44 51 101 77 181 83 83 6 139 -13 191 -65 20 -20 36 -40 36 -44 0 -4 36 -9 80 -11 50 -2 80 1 80 7 0 21 -70 113 -108 143 -86 68 -206 98 -323 81z m141 -39 c29 -6 72 -20 96 -31 51 -26 129 -103 120 -118 -12 -18 -59 -1 -93 35 -56 57 -107 78 -198 78 -63 1 -91 -4 -132 -23 -130 -58 -201 -216 -171 -378 27 -151 147 -253 297 -253 79 0 138 22 198 75 49 43 85 56 98 35 10 -16 -76 -91 -135 -119 -48 -22 -68 -25 -155 -25 -109 0 -158 15 -231 70 -48 37 -110 131 -125 187 -19 75 -8 203 23 269 43 93 129 163 238 194 57 16 103 17 170 4z"/> <path d="M2410 1259 c0 -2 -1 -183 -3 -402 l-2 -397 65 0 65 0 -3 159 -3 158 123 5 c68 3 137 11 153 17 89 35 143 103 152 194 11 110 -43 199 -145 238 -48 18 -84 22 -229 27 -95 2 -173 3 -173 1z m402 -72 c67 -33 99 -77 106 -147 8 -86 -28 -154 -101 -192 -33 -17 -67 -23 -161 -27 -156 -8 -157 -8 -159 -181 -2 -106 -4 -124 -20 -134 -13 -8 -20 -8 -26 2 -5 8 -8 165 -8 349 0 284 2 337 15 350 13 12 41 14 156 11 131 -3 145 -5 198 -31z"/> <path d="M2543 1180 c-35 -14 -42 -40 -44 -164 -1 -110 0 -119 22 -142 20 -21 31 -24 101 -24 107 0 159 14 199 56 30 31 34 41 37 102 3 57 0 72 -20 101 -39 58 -79 75 -182 77 -50 1 -101 -1 -113 -6z m210 -44 c55 -23 71 -50 72 -116 0 -54 -3 -63 -33 -92 -32 -33 -33 -33 -147 -36 l-115 -4 0 131 0 131 95 0 c58 0 108 -5 128 -14z"/> <path d="M19 1068 c-25 -95 1 -163 134 -343 67 -90 110 -169 105 -193 -4 -23 -178 225 -204 292 -12 30 -21 56 -19 58 2 2 -3 9 -11 16 -12 11 -14 6 -14 -30 1 -60 28 -114 126 -249 90 -125 123 -188 124 -231 0 -69 34 -24 46 60 11 82 -14 143 -119 293 -125 178 -130 188 -135 287 -2 45 -8 82 -13 82 -4 0 -13 -19 -20 -42z"/> </g> </svg> 